# xmcd
#
# Track frame offsets:
#       150
#       15724
#       30381
#       49539
#       64831
#       83309
#       96644
#       116264
#       134616
#       149176
#
# Disc length: 2187 seconds
#
# Revision: 0
# Processed by: cddbd v1.5.1PL0 Copyright (c) Steve Scherf et al.
# Submitted via: WaveLab 4.01
#
DISCID=8508890a
DTITLE=Mark Stacy - Colicchio
DYEAR=2004
DGENRE=Singer-Songwriter
TTITLE0=Car Full Of Kids
TTITLE1=I Had A Flat Top
TTITLE2=How The Time Can Fly
TTITLE3=No Strings Attached
TTITLE4=Tell That One Again
TTITLE5=Jukebox Therapy
TTITLE6=A Beer And A Nickel Cigar
TTITLE7=You'll Never Leave Your Love
TTITLE8=Hem And Haw
TTITLE9=Gimmie Coffee
EXTD=
EXTT0=
EXTT1=
EXTT2=
EXTT3=
EXTT4=
EXTT5=
EXTT6=
EXTT7=
EXTT8=
EXTT9=
PLAYORDER=
